<svg width="90" height="19" viewBox="0 0 90 19" fill="none" xmlns="http://www.w3.org/2000/svg">
<path d="M4.664 8.616V4.272H6.872C8.312 4.272 9.296 5.088 9.296 6.456C9.296 7.776 8.312 8.616 6.872 8.616H4.664ZM7.256 11.88C10.712 11.88 13.088 9.648 13.088 6.432C13.088 3.264 10.712 0.983999 7.256 0.983999H0.848V18H4.64V11.88H7.256ZM16.6802 10.608C16.7522 9.72 17.5202 8.592 19.0562 8.592C20.7842 8.592 21.4082 9.696 21.4562 10.608H16.6802ZM21.7202 13.704C21.3842 14.64 20.6402 15.264 19.3202 15.264C17.9042 15.264 16.6802 14.304 16.6082 12.96H24.9122C24.9362 12.888 24.9842 12.336 24.9842 11.832C24.9842 7.992 22.7042 5.712 19.0082 5.712C15.9122 5.712 13.0562 8.16 13.0562 12C13.0562 16.008 15.9842 18.36 19.2722 18.36C22.2962 18.36 24.1922 16.632 24.7682 14.568L21.7202 13.704ZM34.1601 6.072C33.9201 6 33.5601 5.952 33.2001 5.952C32.2401 5.952 30.7281 6.336 30.1041 7.68V6.072H26.5761V18H30.2241V12.792C30.2241 10.416 31.5441 9.552 33.0081 9.552C33.3681 9.552 33.7521 9.576 34.1601 9.672V6.072ZM34.7324 14.616C34.8284 15.936 36.0284 18.36 39.7724 18.36C42.9644 18.36 44.5244 16.368 44.5244 14.328C44.5244 12.576 43.3244 11.088 40.8524 10.584L39.2684 10.272C38.7404 10.176 38.3324 9.888 38.3324 9.384C38.3324 8.76 38.9324 8.352 39.6284 8.352C40.7324 8.352 41.2364 9.024 41.3324 9.816L44.3564 9.264C44.2364 7.872 43.0364 5.712 39.5804 5.712C36.9164 5.712 34.9964 7.488 34.9964 9.672C34.9964 11.352 36.0044 12.792 38.5484 13.344L39.9164 13.656C40.8044 13.848 41.0924 14.208 41.0924 14.64C41.0924 15.168 40.6364 15.672 39.7004 15.672C38.4524 15.672 37.8764 14.88 37.8284 14.064L34.7324 14.616ZM51.5944 15C50.2264 15 48.9064 14.016 48.9064 12.024C48.9064 10.008 50.2264 9.072 51.5944 9.072C52.9864 9.072 54.2824 10.008 54.2824 12.024C54.2824 14.04 52.9864 15 51.5944 15ZM51.5944 5.712C48.0424 5.712 45.2584 8.328 45.2584 12.024C45.2584 15.72 48.0424 18.36 51.5944 18.36C55.1704 18.36 57.9304 15.72 57.9304 12.024C57.9304 8.328 55.1704 5.712 51.5944 5.712ZM63.1763 11.16C63.1763 9.96 63.9443 9.072 65.1443 9.072C66.4643 9.072 67.0883 9.96 67.0883 11.136V18H70.7363V10.512C70.7363 7.896 69.3923 5.76 66.3923 5.76C65.1683 5.76 63.7043 6.312 63.0563 7.44V6.072H59.5283V18H63.1763V11.16ZM72.3314 14.712C72.3314 16.608 73.8434 18.336 76.4594 18.336C78.0434 18.336 79.1954 17.664 79.8194 16.656C79.8194 17.472 79.9154 17.904 79.9394 18H83.2274C83.2034 17.88 83.0834 17.088 83.0834 16.152V10.32C83.0834 7.872 81.6674 5.712 77.8034 5.712C74.2994 5.712 72.7154 7.968 72.5714 9.672L75.7394 10.32C75.8114 9.432 76.5074 8.568 77.7794 8.568C78.9314 8.568 79.5314 9.168 79.5314 9.864C79.5314 10.272 79.3154 10.584 78.6674 10.68L75.8594 11.112C73.8914 11.4 72.3314 12.6 72.3314 14.712ZM77.3474 15.696C76.3394 15.696 75.9314 15.096 75.9314 14.472C75.9314 13.632 76.5074 13.272 77.2754 13.152L79.5314 12.792V13.32C79.5314 15.168 78.4274 15.696 77.3474 15.696ZM89.0507 18V0.623999H85.4027V18H89.0507Z" fill="white"/>
</svg>
